<svg width="20" height="20" viewBox="0 0 20 20" fill="none" xmlns="http://www.w3.org/2000/svg">
<path d="M19.4498 0.564969C19.3111 0.425914 19.1462 0.315593 18.9648 0.24032C18.7833 0.165048 18.5888 0.126303 18.3923 0.126303C18.1959 0.126303 18.0014 0.165048 17.8199 0.24032C17.6384 0.315593 17.4736 0.425914 17.3348 0.564969L9.99985 7.88497L2.66485 0.549969C2.52597 0.411096 2.36111 0.300936 2.17966 0.225779C1.99822 0.150621 1.80374 0.111938 1.60735 0.111938C1.41095 0.111938 1.21648 0.150621 1.03503 0.225779C0.853586 0.300936 0.68872 0.411096 0.549847 0.549969C0.410974 0.688842 0.300814 0.853708 0.225657 1.03515C0.150499 1.2166 0.111816 1.41107 0.111816 1.60747C0.111816 1.80387 0.150499 1.99834 0.225657 2.17978C0.300814 2.36123 0.410974 2.5261 0.549847 2.66497L7.88485 9.99997L0.549847 17.335C0.410974 17.4738 0.300814 17.6387 0.225657 17.8202C0.150499 18.0016 0.111816 18.1961 0.111816 18.3925C0.111816 18.5889 0.150499 18.7833 0.225657 18.9648C0.300814 19.1462 0.410974 19.3111 0.549847 19.45C0.68872 19.5888 0.853586 19.699 1.03503 19.7742C1.21648 19.8493 1.41095 19.888 1.60735 19.888C1.80374 19.888 1.99822 19.8493 2.17966 19.7742C2.36111 19.699 2.52597 19.5888 2.66485 19.45L9.99985 12.115L17.3348 19.45C17.4737 19.5888 17.6386 19.699 17.82 19.7742C18.0015 19.8493 18.1959 19.888 18.3923 19.888C18.5887 19.888 18.7832 19.8493 18.9647 19.7742C19.1461 19.699 19.311 19.5888 19.4498 19.45C19.5887 19.3111 19.6989 19.1462 19.774 18.9648C19.8492 18.7833 19.8879 18.5889 19.8879 18.3925C19.8879 18.1961 19.8492 18.0016 19.774 17.8202C19.6989 17.6387 19.5887 17.4738 19.4498 17.335L12.1148 9.99997L19.4498 2.66497C20.0198 2.09497 20.0198 1.13497 19.4498 0.564969Z" fill="#83848C"/>
</svg>
