<svg width="36" height="36" viewBox="0 0 36 36" fill="none" xmlns="http://www.w3.org/2000/svg">
<path d="M31.1687 11.2428C31.1831 11.5344 31.1885 11.8296 31.1885 12.1212C31.1885 21.1032 24.3539 31.4568 11.8565 31.4568C8.01714 31.4568 4.44774 30.3318 1.43994 28.4022C3.21902 28.6173 5.02305 28.4798 6.74893 27.9973C8.47481 27.5149 10.0887 26.6971 11.4983 25.5906C10.0807 25.5638 8.70685 25.0947 7.5689 24.2488C6.43095 23.4029 5.58578 22.2226 5.15154 20.8728C6.17045 21.0633 7.21909 21.0234 8.22054 20.7558C6.68264 20.4439 5.29986 19.61 4.30653 18.3952C3.31319 17.1804 2.7704 15.6596 2.77014 14.0904V14.0058C3.7137 14.5307 4.76898 14.8226 5.84814 14.8572C4.40791 13.897 3.3884 12.4234 2.99769 10.7372C2.60698 9.05091 2.87454 7.2791 3.74574 5.78339C5.45176 7.88302 7.58037 9.60029 9.99332 10.8237C12.4063 12.047 15.0496 12.7491 17.7515 12.8844C17.6346 12.3761 17.5761 11.8561 17.5769 11.3346C17.5769 10.4426 17.7527 9.55931 18.0941 8.73522C18.4355 7.91113 18.9359 7.16237 19.5667 6.53171C20.1976 5.90105 20.9465 5.40083 21.7706 5.05964C22.5948 4.71845 23.4781 4.54295 24.3701 4.54319C25.2998 4.54168 26.2198 4.73118 27.0732 5.09996C27.9265 5.46874 28.695 6.00892 29.3309 6.68699C30.8522 6.38585 32.3112 5.82831 33.6455 5.03819C33.138 6.61176 32.0762 7.94739 30.6575 8.79659C32.0044 8.63692 33.3198 8.27653 34.5599 7.72739C33.6489 9.09258 32.5003 10.2832 31.1687 11.2428Z" fill="#83848C"/>
</svg>
