<svg width="9" height="16" viewBox="0 0 9 16" fill="none" xmlns="http://www.w3.org/2000/svg">
<path d="M0.362305 14.825C0.174805 14.6375 0.0810547 14.4155 0.0810547 14.159C0.0810547 13.903 0.174805 13.6813 0.362305 13.4938L5.85605 8L0.343555 2.4875C0.168555 2.3125 0.0810547 2.09375 0.0810547 1.83125C0.0810547 1.56875 0.174805 1.34375 0.362305 1.15625C0.549805 0.96875 0.771805 0.875 1.0283 0.875C1.2843 0.875 1.50605 0.96875 1.69355 1.15625L7.99356 7.475C8.06856 7.55 8.12181 7.63125 8.15331 7.71875C8.18431 7.80625 8.19981 7.9 8.19981 8C8.19981 8.1 8.18431 8.19375 8.15331 8.28125C8.12181 8.36875 8.06856 8.45 7.99356 8.525L1.6748 14.8438C1.4998 15.0188 1.2843 15.1063 1.0283 15.1063C0.771805 15.1063 0.549805 15.0125 0.362305 14.825Z" fill="white"/>
</svg>
