<svg width="34" height="34" viewBox="0 0 34 34" fill="none" xmlns="http://www.w3.org/2000/svg">
<path d="M29.5998 0.799988H4.3998C2.4198 0.799988 0.799805 2.41999 0.799805 4.39999V29.6C0.799805 31.5818 2.4198 33.2 4.3998 33.2H16.9998V20.6H13.3998V16.145H16.9998V12.455C16.9998 8.55979 19.1814 5.82379 23.7786 5.82379L27.024 5.82739V10.5164H24.8694C23.0802 10.5164 22.3998 11.8592 22.3998 13.1048V16.1468H27.0222L25.9998 20.6H22.3998V33.2H29.5998C31.5798 33.2 33.1998 31.5818 33.1998 29.6V4.39999C33.1998 2.41999 31.5798 0.799988 29.5998 0.799988Z" fill="#83848C"/>
</svg>
