<svg width="36" height="36" viewBox="0 0 36 36" fill="none" xmlns="http://www.w3.org/2000/svg">
<path d="M31.4206 12.4575C31.4055 11.3214 31.1928 10.1967 30.7921 9.1335C30.4446 8.23672 29.9139 7.42229 29.2339 6.74224C28.5538 6.06219 27.7394 5.53147 26.8426 5.184C25.7931 4.79003 24.6844 4.57701 23.5636 4.554C22.1206 4.4895 21.6631 4.4715 18.0001 4.4715C14.3371 4.4715 13.8676 4.4715 12.4351 4.554C11.3148 4.57718 10.2066 4.7902 9.15761 5.184C8.26069 5.53123 7.44614 6.06186 6.76606 6.74195C6.08597 7.42203 5.55534 8.23658 5.20811 9.1335C4.81335 10.1822 4.60079 11.2907 4.57961 12.411C4.51511 13.8555 4.49561 14.313 4.49561 17.976C4.49561 21.639 4.49561 22.107 4.57961 23.541C4.60211 24.663 4.81361 25.77 5.20811 26.8215C5.55592 27.7181 6.08695 28.5324 6.76726 29.2122C7.44757 29.892 8.2622 30.4224 9.15911 30.7695C10.2053 31.1793 11.3137 31.4076 12.4366 31.4445C13.8811 31.509 14.3386 31.5285 18.0016 31.5285C21.6646 31.5285 22.1341 31.5285 23.5666 31.4445C24.6873 31.4224 25.7961 31.2099 26.8456 30.816C27.7421 30.4681 28.5564 29.9373 29.2364 29.2573C29.9164 28.5773 30.4472 27.763 30.7951 26.8665C31.1896 25.8165 31.4011 24.7095 31.4236 23.586C31.4881 22.143 31.5076 21.6855 31.5076 18.021C31.5046 14.358 31.5046 13.893 31.4206 12.4575ZM17.9911 24.903C14.1601 24.903 11.0566 21.7995 11.0566 17.9685C11.0566 14.1375 14.1601 11.034 17.9911 11.034C19.8302 11.034 21.5941 11.7646 22.8945 13.0651C24.195 14.3655 24.9256 16.1294 24.9256 17.9685C24.9256 19.8076 24.195 21.5715 22.8945 22.8719C21.5941 24.1724 19.8302 24.903 17.9911 24.903ZM25.2016 12.3945C24.9892 12.3947 24.7788 12.353 24.5826 12.2718C24.3863 12.1906 24.208 12.0715 24.0578 11.9213C23.9076 11.7711 23.7885 11.5928 23.7073 11.3965C23.6261 11.2003 23.5844 10.9899 23.5846 10.7775C23.5846 10.5652 23.6264 10.3551 23.7076 10.159C23.7889 9.96289 23.9079 9.78472 24.058 9.63463C24.2081 9.48455 24.3863 9.3655 24.5823 9.28428C24.7784 9.20305 24.9886 9.16125 25.2009 9.16125C25.4131 9.16125 25.6233 9.20305 25.8194 9.28428C26.0155 9.3655 26.1936 9.48455 26.3437 9.63463C26.4938 9.78472 26.6129 9.96289 26.6941 10.159C26.7753 10.3551 26.8171 10.5652 26.8171 10.7775C26.8171 11.6715 26.0941 12.3945 25.2016 12.3945Z" fill="#83848C"/>
<path d="M17.9908 22.473C20.4786 22.473 22.4953 20.4563 22.4953 17.9685C22.4953 15.4807 20.4786 13.464 17.9908 13.464C15.5031 13.464 13.4863 15.4807 13.4863 17.9685C13.4863 20.4563 15.5031 22.473 17.9908 22.473Z" fill="#83848C"/>
</svg>
