<svg width="9" height="16" viewBox="0 0 9 16" fill="none" xmlns="http://www.w3.org/2000/svg">
<path d="M8.6377 1.175C8.8252 1.3625 8.91895 1.5845 8.91895 1.841C8.91895 2.097 8.8252 2.31875 8.6377 2.50625L3.14395 8L8.65645 13.5125C8.83145 13.6875 8.91895 13.9062 8.91895 14.1687C8.91895 14.4312 8.8252 14.6563 8.6377 14.8438C8.4502 15.0312 8.2282 15.125 7.9717 15.125C7.7157 15.125 7.49395 15.0312 7.30645 14.8437L1.00644 8.525C0.931444 8.45 0.878194 8.36875 0.846695 8.28125C0.815694 8.19375 0.800194 8.1 0.800194 8C0.800194 7.9 0.815694 7.80625 0.846695 7.71875C0.878195 7.63125 0.931444 7.55 1.00644 7.475L7.3252 1.15625C7.5002 0.981251 7.7157 0.893751 7.9717 0.893751C8.2282 0.893751 8.4502 0.987501 8.6377 1.175Z" fill="#2D2D2D"/>
</svg>
